<svg width="36" height="36" viewBox="0 0 36 36" fill="none" xmlns="http://www.w3.org/2000/svg">
  <defs>
    <linearGradient id="foodlens-grad" x1="0" y1="0" x2="36" y2="36" gradientUnits="userSpaceOnUse">
      <stop stop-color="#10B981"/>
      <stop offset="1" stop-color="#059669"/>
    </linearGradient>
  </defs>
  <!-- Scanning Brackets -->
  <path d="M5 11V7A2 2 0 0 1 7 5H11" stroke="#10B981" stroke-width="2.5" stroke-linecap="round"/>
  <path d="M25 5H29A2 2 0 0 1 31 7V11" stroke="#10B981" stroke-width="2.5" stroke-linecap="round"/>
  <path d="M31 25V29A2 2 0 0 1 29 31H25" stroke="#10B981" stroke-width="2.5" stroke-linecap="round"/>
  <path d="M11 31H7A2 2 0 0 1 5 29V25" stroke="#10B981" stroke-width="2.5" stroke-linecap="round"/>
  <!-- Central Lens Outer Ring -->
  <circle cx="18" cy="18" r="8" stroke="url(#foodlens-grad)" stroke-width="2.5"/>
  <!-- Center Lens Pupil -->
  <circle cx="18" cy="18" r="3.5" fill="url(#foodlens-grad)"/>
  <!-- Botanical Leaf Curve Accent -->
  <path d="M17 10C21 10 24 12 25 15C22 16 19 15 17 13V10Z" fill="#34D399"/>
</svg>
